<mxfile host="Electron" agent="Mozilla/5.0 (Windows NT 10.0; Win64; x64) AppleWebKit/537.36 (KHTML, like Gecko) draw.io/27.0.2 Chrome/134.0.6998.205 Electron/35.3.0 Safari/537.36" version="27.0.2">
  <diagram id="sp-I8JUaAaJLi4dPZuDr" name="Page-2">
    <mxGraphModel dx="1250" dy="913" grid="1" gridSize="10" guides="1" tooltips="1" connect="1" arrows="1" fold="1" page="1" pageScale="1" pageWidth="827" pageHeight="1169" math="0" shadow="0">
      <root>
        <mxCell id="0" />
        <mxCell id="1" parent="0" />
        <mxCell id="MOA89zxKdUWUaNkwN0AB-8" value="Load Deck" style="rounded=0;whiteSpace=wrap;html=1;" parent="1" vertex="1">
          <mxGeometry x="40" y="130" width="1150" height="50" as="geometry" />
        </mxCell>
        <mxCell id="MOA89zxKdUWUaNkwN0AB-10" value="" style="rounded=0;whiteSpace=wrap;html=1;" parent="1" vertex="1">
          <mxGeometry x="40" y="200" width="1150" height="330" as="geometry" />
        </mxCell>
        <mxCell id="MOA89zxKdUWUaNkwN0AB-11" value="Format:&amp;nbsp;" style="rounded=0;whiteSpace=wrap;html=1;" parent="1" vertex="1">
          <mxGeometry x="50" y="210" width="1120" height="40" as="geometry" />
        </mxCell>
        <mxCell id="MOA89zxKdUWUaNkwN0AB-12" value="" style="rounded=0;whiteSpace=wrap;html=1;" parent="1" vertex="1">
          <mxGeometry x="650" y="220" width="120" height="20" as="geometry" />
        </mxCell>
        <mxCell id="MOA89zxKdUWUaNkwN0AB-13" value="File import" style="rounded=0;whiteSpace=wrap;html=1;" parent="1" vertex="1">
          <mxGeometry x="50" y="300" width="1120" height="60" as="geometry" />
        </mxCell>
        <mxCell id="MOA89zxKdUWUaNkwN0AB-14" value="If format is commander add &quot;Commander&quot; input field here" style="rounded=0;whiteSpace=wrap;html=1;" parent="1" vertex="1">
          <mxGeometry x="50" y="260" width="1120" height="30" as="geometry" />
        </mxCell>
        <mxCell id="MOA89zxKdUWUaNkwN0AB-15" value="Add tags" style="rounded=0;whiteSpace=wrap;html=1;" parent="1" vertex="1">
          <mxGeometry x="50" y="370" width="1120" height="60" as="geometry" />
        </mxCell>
        <mxCell id="MOA89zxKdUWUaNkwN0AB-16" value="LOAD" style="rounded=0;whiteSpace=wrap;html=1;" parent="1" vertex="1">
          <mxGeometry x="555" y="450" width="120" height="60" as="geometry" />
        </mxCell>
        <mxCell id="-IXCFGFNL6aM4oRsIy8e-1" value="" style="html=1;shadow=0;dashed=0;shape=mxgraph.bootstrap.rect;fillColor=#222222;strokeColor=none;whiteSpace=wrap;rounded=0;fontSize=12;fontColor=#000000;align=center;" parent="1" vertex="1">
          <mxGeometry x="40" y="70" width="1150" height="40" as="geometry" />
        </mxCell>
        <mxCell id="-IXCFGFNL6aM4oRsIy8e-2" value="MTGDeckStats" style="html=1;shadow=0;dashed=0;fillColor=none;strokeColor=none;shape=mxgraph.bootstrap.rect;fontColor=#999999;fontSize=14;whiteSpace=wrap;" parent="-IXCFGFNL6aM4oRsIy8e-1" vertex="1">
          <mxGeometry width="115" height="40" as="geometry" />
        </mxCell>
        <mxCell id="-IXCFGFNL6aM4oRsIy8e-3" value="Load" style="html=1;shadow=0;dashed=0;shape=mxgraph.bootstrap.rect;fillColor=#000000;strokeColor=none;fontColor=#ffffff;spacingRight=30;whiteSpace=wrap;" parent="-IXCFGFNL6aM4oRsIy8e-1" vertex="1">
          <mxGeometry x="115" width="129.375" height="40" as="geometry" />
        </mxCell>
        <mxCell id="-IXCFGFNL6aM4oRsIy8e-4" value="Profile" style="html=1;shadow=0;dashed=0;fillColor=none;strokeColor=none;shape=mxgraph.bootstrap.rect;fontColor=#999999;whiteSpace=wrap;" parent="-IXCFGFNL6aM4oRsIy8e-1" vertex="1">
          <mxGeometry x="948.75" width="100.625" height="40" as="geometry" />
        </mxCell>
        <mxCell id="-IXCFGFNL6aM4oRsIy8e-5" value="Log Out" style="html=1;shadow=0;dashed=0;fillColor=none;strokeColor=none;shape=mxgraph.bootstrap.rect;fontColor=#999999;whiteSpace=wrap;" parent="-IXCFGFNL6aM4oRsIy8e-1" vertex="1">
          <mxGeometry x="1049.375" width="100.625" height="40" as="geometry" />
        </mxCell>
        <mxCell id="-IXCFGFNL6aM4oRsIy8e-6" value="Create" style="html=1;shadow=0;dashed=0;shape=mxgraph.bootstrap.rect;fillColor=#000000;strokeColor=none;fontColor=#ffffff;spacingRight=30;whiteSpace=wrap;" parent="-IXCFGFNL6aM4oRsIy8e-1" vertex="1">
          <mxGeometry x="244.38" width="129.375" height="40" as="geometry" />
        </mxCell>
        <mxCell id="-IXCFGFNL6aM4oRsIy8e-7" value="About" style="html=1;shadow=0;dashed=0;shape=mxgraph.bootstrap.rect;fillColor=#000000;strokeColor=none;fontColor=#ffffff;spacingRight=30;whiteSpace=wrap;" parent="-IXCFGFNL6aM4oRsIy8e-1" vertex="1">
          <mxGeometry x="503.14" width="129.375" height="40" as="geometry" />
        </mxCell>
        <mxCell id="-IXCFGFNL6aM4oRsIy8e-8" value="Decks" style="html=1;shadow=0;dashed=0;shape=mxgraph.bootstrap.rect;fillColor=#000000;strokeColor=none;fontColor=#ffffff;spacingRight=30;whiteSpace=wrap;" parent="-IXCFGFNL6aM4oRsIy8e-1" vertex="1">
          <mxGeometry x="373.76" width="129.375" height="40" as="geometry" />
        </mxCell>
      </root>
    </mxGraphModel>
  </diagram>
</mxfile>
